<?xml version="1.0" encoding="UTF-8"?>
<svg id="Layer_2" data-name="Layer 2" xmlns="http://www.w3.org/2000/svg" viewBox="0 0 534.7 125.57">
  <defs>
    <style>
      .cls-1 {
        fill: #ff5c35;
      }

      .cls-2 {
        fill: #08090b;
      }
    </style>
  </defs>
  <g id="Layer_1-2" data-name="Layer 1">
    <g>
      <g>
        <path class="cls-1" d="M47.94,36.86c3.54,3.12,8.23,6.91,4.72,11.74-1.63,1.81-3.31,3.34-6.61,6.67-5.82,5.8-13.82,13.78-16.03,15.98-4.14,3.77-5.61,10.34-2.64,15.29,1.29,2.31,2.83,3.57,4.67,5.44,5.52,5.51,17.49,17.44,19.97,19.91,1.26,1.19,2.04,3.09,1.83,4.88-.22,2.52-2.72,4.53-4.51,6.34-2.71,3.07-6.9,3.41-9.62.21C30.5,114.16,6.64,90.31,2.24,85.95c-2.39-2.29-3.03-6.43-1.12-9.25,4.56-5.4,27.68-27.67,37.55-37.77.98-.88,1.48-1.68,2.64-2.42,1.98-1.23,4.67-1.21,6.53.28l.11.08Z"/>
        <path class="cls-1" d="M49.13,88.49l-4.49-4.49c-2.01-2.01-2.01-5.28,0-7.29l23.18-23.18c4.71-4.71,4.71-12.35,0-17.06l-23.18-23.18c-2.01-2.01-2.01-5.28,0-7.29l4.49-4.49c2.01-2.01,5.28-2.01,7.29,0l38.62,38.62c2.69,2.69,2.7,7.06,0,9.75l-38.61,38.61c-2.01,2.01-5.28,2.01-7.29,0Z"/>
      </g>
      <g>
        <path class="cls-2" d="M160.74,94.19h-2.67c-3.36,0-5.34-1.48-7.02-4.23l-9.52-15.95c-.99.04-2.02.07-3.07.07h-7.51v14.31c0,3.74-2.13,5.8-6,5.8h-2.34c-3.87,0-6-2.06-6-5.8v-51.43c0-3.74,2.13-5.8,6-5.8h16.12c21.13,0,28.52,6.81,28.52,21.18,0,9.09-3.86,15.73-12.43,19.14l10.02,15.78c2.84,4.47,1.59,6.92-4.11,6.92ZM152.91,53.27c0-7.81-4.51-10.51-14.55-10.51h-7.51v20.94h7.51c10.04,0,14.55-2.55,14.55-10.42Z"/>
        <path class="cls-2" d="M175.84,62.76c0-22.46,14.62-32.2,31.01-32.2s30.89,9.74,30.89,32.2-14.68,32.24-31.07,32.24-30.83-9.34-30.83-32.24ZM223.53,62.73c0-12.66-6.67-20.01-16.74-20.01s-16.95,7.29-16.95,20.01,6.43,20.15,16.83,20.15,16.86-7.09,16.86-20.15Z"/>
        <path class="cls-2" d="M248.82,88.39v-51.43c0-3.74,2.13-5.8,6-5.8h12.61c26.39,0,36.66,10.82,36.66,31.54s-10.27,31.48-36.66,31.48h-12.61c-3.87,0-6-2.06-6-5.8ZM289.73,62.59c0-13.04-5.29-19.31-21.85-19.31h-4.84v38.68h4.96c16.43,0,21.73-6.24,21.73-19.37Z"/>
        <path class="cls-1" d="M315.76,94.16c-3.84,0-5.79-1.57-3.46-6.74l23.4-51.82c1.35-2.98,3.49-4.44,6.91-4.44h.21c4.5,0,6.96,1.51,4.6,6.74l-23.33,51.81c-1.35,2.99-3.51,4.45-6.93,4.45h-1.41Z"/>
        <path class="cls-2" d="M357.98,88.39v-51.43c0-3.74,2.13-5.8,6-5.8h12.61c26.39,0,36.66,10.82,36.66,31.54s-10.27,31.48-36.66,31.48h-12.61c-3.87,0-6-2.06-6-5.8ZM398.89,62.59c0-13.04-5.29-19.31-21.85-19.31h-4.84v38.68h4.96c16.43,0,21.73-6.24,21.73-19.37Z"/>
        <path class="cls-2" d="M424.27,88.39v-51.43c0-3.74,2.13-5.8,6-5.8h31.14c3.87,0,6,2.06,6,5.8v.67c0,3.74-2.13,5.8-6,5.8h-22.93v13.6h21.31c3.87,0,6,1.91,6,5.33v.09c0,3.45-2.13,5.31-6,5.31h-21.31v14.21h22.93c3.87,0,6,2.06,6,5.8v.64c0,3.74-2.13,5.8-6,5.8h-31.14c-3.87,0-6-2.06-6-5.8Z"/>
        <path class="cls-2" d="M494.61,89.59l-20.92-51.76c-1.59-3.94.35-6.67,4.76-6.67h2.94c3.45,0,5.48,1.48,6.75,4.72l15.78,42.18,15.78-42.18c1.22-3.24,3.3-4.72,6.75-4.72h2.94c4.41,0,6.37,2.73,4.76,6.68l-20.98,51.75c-1.25,3.08-3.49,4.59-6.91,4.59h-4.74c-3.42,0-5.66-1.51-6.91-4.6Z"/>
      </g>
    </g>
  </g>
</svg>